<?xml version="1.0" encoding="utf-8"?>
<!-- Generator: Adobe Illustrator 21.0.0, SVG Export Plug-In . SVG Version: 6.00 Build 0)  -->
<svg version="1.1" id="Layer_1" xmlns="http://www.w3.org/2000/svg" xmlns:xlink="http://www.w3.org/1999/xlink" x="0px" y="0px"
	 viewBox="0 0 76 76" style="enable-background:new 0 0 76 76;" xml:space="preserve">
<style type="text/css">
	.st0{fill:#E4E4E4;}
	.st1{display:none;}
	.st2{display:inline;}
</style>
<circle class="st0" cx="38" cy="38" r="38"/>
<g id="sayur" class="st1">
	<path class="st2" d="M60.2,39.7c0-3-1.5-5.9-3.9-7.7c-0.5-0.4-1.1-0.6-1.7-0.6c-0.8,0-1.5,0.3-2.1,0.8c-0.1-0.1-0.2-0.2-0.3-0.3
		c-0.4-0.3-0.8-0.5-1.3-0.5l0.3-3.4c0-0.1,0-0.2,0-0.2c0-1.5-1.2-2.7-2.7-2.7h-0.2c-1.5,0-2.7,1.2-2.7,2.7c0,0.1,0,0.2,0,0.2
		l0.3,3.4c-0.4,0.1-0.9,0.3-1.2,0.5c-0.1,0.1-0.2,0.2-0.4,0.3c-0.1-0.1-0.1-0.1-0.2-0.2c0-0.2,0.1-0.5,0.1-0.7
		c0-0.9-0.3-1.7-0.8-2.4c0.5-0.7,0.8-1.5,0.8-2.4c0-2.4-2-4.3-4.4-4.2c-0.4-1.3-1.5-2.2-2.8-2.6c-0.8-1.1-2.1-1.6-3.5-1.6
		c-0.6-1.6-2.1-2.8-3.9-2.8c-1.5,0-2.9,0.8-3.6,2.1c-1.8,0.1-3.4,1.4-3.9,3.1c-2.2,0.8-3.6,2.9-3.6,5.2c0,1.9,0.9,3.6,2.4,4.6
		c-0.2,0.5-0.3,1.1-0.3,1.7c0,1.3,0.6,2.4,1.5,3.2C22,35.7,22,36,22,36.3c0,2.1,1.6,3.9,3.7,4.1l1.5,4.3c-0.8,0.6-1.5,1.3-2,2.1
		l-3.6-0.8c-0.1,0-0.3,0-0.4,0c-1.1,0-1.9,0.9-1.9,1.9v0.3c0,0.2,0,0.4,0.1,0.6h-0.1c-1.2,0-2.1,0.9-2.1,2.1s0.9,2.1,2.1,2.1h0.1
		c-0.1,0.2-0.1,0.4-0.1,0.6v0.3c0,1.1,0.9,1.9,1.9,1.9c0.1,0,0.3,0,0.4,0l3.6-0.8c1.3,2.2,3.8,3.6,6.5,3.6h0.2c0.4,0,0.8,0,1.2-0.1
		l23.8-3.7c1.9-0.3,3.3-1.9,3.3-3.9c0-1.6-0.9-2.9-2.3-3.5c1.4-1.7,2.3-3.9,2.3-6.2L60.2,39.7z M51.4,33.1c2.1,1.6,3.3,4.1,3.3,6.8
		v2.6c0,1.4-0.4,2.8-1,4.1l-5.6-0.9c-0.2-1-0.4-2-0.4-3.1v-2.8c0-0.7,0.1-1.4,0.2-2.1c0.2,0,0.3,0,0.5,0c2,0,3.5-0.9,3.5-2.1
		c0-0.7-0.5-1.2-1.2-1.6l0.1-1.1C51,32.9,51.2,33,51.4,33.1L51.4,33.1z M48.3,26.6h0.2c0.7,0,1.3,0.6,1.3,1.3c0,0,0,0.1,0,0.1
		l-0.6,6.9l0.5,0.2c0.6,0.2,0.8,0.5,0.8,0.5c0,0.2-0.7,0.7-2.1,0.7c-1.3,0-2.1-0.5-2.1-0.7c0-0.1,0.2-0.3,0.8-0.5l0.5-0.2L47,28
		c0,0,0-0.1,0-0.1C47,27.2,47.6,26.6,48.3,26.6L48.3,26.6z M46.1,32.9l0.1,1.1c-0.8,0.4-1.2,1-1.2,1.6c0,0.8,0.6,1.4,1.6,1.8
		c-0.1,0.8-0.2,1.6-0.2,2.4v2.8c0,1,0.1,1.9,0.3,2.8l-4.1-0.6c-0.2-0.8-0.3-1.6-0.3-2.4v-2.6c0-2.6,1.3-5.2,3.4-6.8
		C45.7,33,45.9,32.9,46.1,32.9z M38.6,44.2c-0.4-1-0.6-2-0.6-3v-1.5c0-2.6,1.3-5.1,3.4-6.6c0.3-0.2,0.6-0.3,0.9-0.3
		c0.4,0,0.8,0.2,1.1,0.5c-1.6,1.8-2.6,4.2-2.6,6.6v2.6c0,0.7,0.1,1.4,0.2,2.1L38.6,44.2z M38.6,23.3l0.1,0.7l0.7-0.2
		c0.2,0,0.4-0.1,0.6-0.1c1.5,0,2.8,1.2,2.8,2.8c0,0.7-0.3,1.4-0.8,1.9L41.6,29l0.5,0.5c0.5,0.5,0.8,1.2,0.8,1.9c0,0,0,0,0,0.1
		c-0.2,0-0.4-0.1-0.6-0.1c-0.6,0-1.2,0.2-1.7,0.6c-1.3,0.9-2.3,2.2-2.9,3.5c-0.3-0.8-0.5-1.6-0.8-2.4c0.6-3.4,3-5.4,3.1-5.4
		l-0.4-0.5l-0.4-0.5c-0.1,0.1-2,1.6-3,4.4c-1.4-3.3-2.8-5.5-2.9-5.6l-1.2,0.8c0,0,1.1,1.7,2.3,4.4c-2.1-0.8-4.4-0.6-4.6-0.6l0.1,1.4
		c1-0.1,4-0.1,5.4,1.4c0.5,1.2,1,2.5,1.4,3.9c-2.1-1.1-4.6-1.1-4.8-1.1V37c0,0,3.1,0,5,1.5c-0.1,0.4-0.1,0.8-0.1,1.3v1.5
		c0,0.9,0.1,1.9,0.4,2.7l-4-0.6c-0.2,0-0.4-0.1-0.6-0.1c-1.5,0-2.8-1.3-2.8-2.8c0-0.3,0.1-0.7,0.2-1L30,39l-0.5-0.3
		c-0.8-0.5-1.3-1.4-1.3-2.3c0-0.5,0.2-1.1,0.5-1.5l0.4-0.7l-0.7-0.4C27,33,26.2,31.6,26.2,30c0-1.9,1.2-3.5,3-4l0.4-0.1l0.1-0.4
		c0.2-1.4,1.4-2.4,2.7-2.4c0,0,0.1,0,0.1,0c0,0,0.1,0,0.1,0l0.5,0l0.2-0.5c0.4-1,1.4-1.7,2.6-1.7C37.2,21,38.4,22,38.6,23.3
		L38.6,23.3z M26.6,39.1h-0.5c-1.5,0-2.8-1.2-2.8-2.8c0-0.3,0.1-0.7,0.2-1l0.2-0.5l-0.5-0.3C22.5,34,22,33.1,22,32.1
		c0-0.5,0.2-1.1,0.5-1.5l0.4-0.7l-0.7-0.4c-1.4-0.7-2.3-2.1-2.3-3.7c0-1.9,1.2-3.5,3-4l0.4-0.1l0.1-0.4c0.2-1.4,1.4-2.4,2.7-2.4
		c0,0,0.1,0,0.1,0c0,0,0.1,0,0.1,0l0.5,0l0.2-0.5c0.4-1,1.4-1.7,2.6-1.7c1.3,0,2.5,1,2.7,2.3l0.1,0.7l0.7-0.2c0.2,0,0.4-0.1,0.6-0.1
		c0.3,0,0.6,0.1,0.9,0.2c-1,0.3-1.9,1-2.4,1.9c-1.8,0.1-3.4,1.4-3.9,3.1c-2.2,0.8-3.6,2.9-3.6,5.2c0,1.9,0.9,3.6,2.4,4.6
		c-0.2,0.5-0.3,1.1-0.3,1.7c0,1.3,0.6,2.4,1.5,3.2c-0.1,0.3-0.1,0.6-0.1,1c0,1.2,0.5,2.3,1.4,3.1c-0.4,0.1-0.8,0.3-1.2,0.5
		L26.6,39.1z M20.6,48.3V48c0-0.3,0.3-0.6,0.7-0.5l3.3,0.7c-0.1,0.2-0.2,0.4-0.2,0.6h-3.2C20.8,48.8,20.6,48.6,20.6,48.3z
		 M18.5,50.9c0-0.4,0.3-0.7,0.7-0.7h1.9h3c0,0.2,0,0.5,0,0.7s0,0.5,0,0.7h-3h-1.9C18.8,51.6,18.5,51.3,18.5,50.9z M21.3,54.4
		c-0.3,0.1-0.7-0.2-0.7-0.5v-0.3c0-0.3,0.3-0.6,0.6-0.6h3.2c0.1,0.2,0.1,0.4,0.2,0.6L21.3,54.4z M58.8,50.9c0,1.3-0.9,2.3-2.2,2.5
		l-23.8,3.7c-0.3,0-0.6,0.1-1,0.1h-0.2c-3.5,0-6.3-2.8-6.3-6.3s2.8-6.3,6.3-6.3h0.2c0.3,0,0.6,0,1,0.1l23.8,3.7
		C57.9,48.6,58.8,49.6,58.8,50.9z M58.8,41.2c0,2.1-0.9,4.2-2.4,5.7l-1.4-0.2c0.6-1.3,1-2.8,1-4.3v-2.6c0-2.5-0.9-4.8-2.6-6.6
		c0.3-0.3,0.7-0.4,1.1-0.4c0.3,0,0.7,0.1,0.9,0.3c2.1,1.6,3.4,4,3.4,6.6L58.8,41.2z"/>
	<path class="st2" d="M31,47.4h1.4v7H31V47.4z"/>
	<path class="st2" d="M36.6,47.4H38v7h-1.4V47.4z"/>
	<path class="st2" d="M42.2,47.4h1.4v7h-1.4V47.4z"/>
	<path class="st2" d="M47.7,48.8h1.4V53h-1.4V48.8z"/>
	<path class="st2" d="M53.3,49.5h1.4v2.8h-1.4V49.5z"/>
</g>
<g id="daging" class="st1">
	<g class="st2">
		<g>
			<path d="M45.7,39.5c-3,1.5-3,5-2.6,6.6l0.2,0.6l0.7-0.1c4.3-0.7,7.6-3.6,8.5-5.5l0.3-0.5l-0.5-0.4C52.1,40.2,48.9,37.9,45.7,39.5
				z M44.4,45.1c-0.1-1.1-0.1-3.3,1.9-4.3c0.6-0.3,1.2-0.4,1.8-0.4c1.1,0,2.1,0.4,2.7,0.7C49.9,42.4,47.6,44.4,44.4,45.1z"/>
			<path d="M60.5,30c0-5.8-3.4-11.6-10.9-11.6c-4.2,0-7.4,1.6-10.7,5.4c-5.5,6.2-8.9,7.7-17.6,7.7c-4.3,0-5.8,3.5-5.8,5.8
				c0,0.2,0,0.5,0,0.7h0v7.3l0,0.2c1.3,4.3,10,12.1,20.3,12.1c17.6,0,24.7-13.3,24.7-18.9v-8h0C60.5,30.5,60.5,30.3,60.5,30z
				 M59,38.7c0,5.1-6.7,17.4-23.2,17.4c-9.4,0-17.6-7.2-18.9-11v-2.9c0.3,0.4,0.6,0.9,0.9,1.3c2.9,3.6,9,7.5,17.2,7.5
				c10.9,0,20.3-5.8,23.9-14.6V38.7z M58.3,34.2c-2.9,9.2-12.2,15.4-23.2,15.4c-7.8,0-13.4-3.6-16.1-7c-1.3-1.6-2-3.5-2-5.3
				c0-1.5,0.9-4.4,4.4-4.4c9,0,12.9-1.7,18.6-8.2c3.1-3.5,5.9-4.9,9.6-4.9C56.1,19.9,59,25,59,30C59,31.3,58.5,33.4,58.3,34.2z"/>
			<path d="M49.6,20.6c-4.8,0-8.7,3.9-8.7,8.7s3.9,8.7,8.7,8.7c4.8,0,8.7-3.9,8.7-8.7S54.4,20.6,49.6,20.6z M49.6,36.5
				c-4,0-7.3-3.3-7.3-7.3s3.3-7.3,7.3-7.3s7.3,3.3,7.3,7.3S53.6,36.5,49.6,36.5z"/>
			<path d="M39.9,32.3c-0.9-0.6-3.5-1.9-7.3,0c-1.5,0.8-4.6,1.3-8.4,1.4l0,1.5c1.9-0.1,6.6-0.3,9-1.5c3-1.5,5.1-0.5,5.8,0
				c1.7,1.1,2.6,2.9,2.6,5.2c0,2-0.5,6.6-5.3,8c-2.7,0.8-7.2-0.6-10.4-2.1c-3-1.5-6.1-4.2-6.1-7.3c0-0.9,0.3-2.2,2.9-2.2v-1.5
				c-3.8,0-4.4,2.3-4.4,3.6c0,3.8,3.6,6.9,6.9,8.6c2.7,1.4,6.3,2.5,9.2,2.5c0.8,0,1.5-0.1,2.2-0.3c5.9-1.7,6.3-7.6,6.3-9.4
				C43.1,35.9,42,33.7,39.9,32.3z"/>
			<path d="M40.2,38.7c0-2-1.6-3.6-3.6-3.6c-2,0-3.6,1.6-3.6,3.6c0,2,1.6,3.6,3.6,3.6S40.2,40.7,40.2,38.7z M34.4,38.7
				c0-1.2,1-2.2,2.2-2.2c1.2,0,2.2,1,2.2,2.2s-1,2.2-2.2,2.2C35.4,40.9,34.4,39.9,34.4,38.7z"/>
			<path d="M49.6,33.6v1.5c3.2,0,5.8-2.6,5.8-5.8H54C54,31.7,52,33.6,49.6,33.6z"/>
			<path d="M29.7,52.6l-0.7,1.2c0.1,0.1,2.9,1.7,7,1.7c0.7,0,1.4,0,2.2-0.2L37.9,54C33.2,54.6,29.7,52.6,29.7,52.6z"/>
			<path d="M39.4,54l0,1.5c0.1,0,1,0,3.1-0.8l-0.5-1.4C40.2,53.9,39.4,54,39.4,54z"/>
		</g>
	</g>
</g>
<g id="ikan" class="st1">
	<g class="st2">
		<g>
			<path d="M29.9,38.5l6.7,4.2v-4.5c4.8-1,9-3.6,11.8-7.4c2.7,3.7,6.3,5.7,10.4,5.7v-1.4c-2.7,0-4.2-2.9-4.2-5.5s1.5-5.5,4.2-5.5
				v-1.4c-4,0-7.7,2-10.4,5.7c-2.6-3.6-6.6-6.1-11.1-7.2v-4.7l-5.8,4.1C25.4,21,20,24.1,16.6,29.3l-0.2,0.4l0.2,0.4
				C19.7,34.8,24.5,37.8,29.9,38.5z M54.6,25c-0.9,1.3-1.4,3-1.4,4.7s0.5,3.4,1.4,4.7c-2.1-0.9-3.9-2.5-5.4-4.7
				C50.7,27.5,52.6,25.9,54.6,25z M35.2,40.2l-2.4-1.5c0.8,0,1.6-0.1,2.4-0.2V40.2z M35.9,19.2V21c-0.7-0.1-1.4-0.2-2.1-0.2
				L35.9,19.2z M32.5,22.1c6.1,0,11.9,2.9,15.1,7.6c-3.2,4.7-9,7.6-15.1,7.6c-1.6,0-3.1-0.2-4.5-0.6c1.3-1.3,3.1-3.7,3.1-7
				c0-1.5-0.1-3-0.8-4.4l-1.3,0.6c0.5,1.1,0.6,2.4,0.6,3.9c0,3.3-2.2,5.6-3.3,6.6c-3.4-1.2-6.3-3.5-8.4-6.6
				C21.4,24.8,26.6,22.1,32.5,22.1z"/>
			<path d="M24.8,30.4c1.1,0,2.1-0.9,2.1-2.1c0-1.1-0.9-2.1-2.1-2.1s-2.1,0.9-2.1,2.1C22.8,29.4,23.7,30.4,24.8,30.4z M24.8,27.6
				c0.4,0,0.7,0.3,0.7,0.7S25.2,29,24.8,29s-0.7-0.3-0.7-0.7S24.5,27.6,24.8,27.6z"/>
			<rect x="31.5" y="26.6" transform="matrix(0.7071 -0.7071 0.7071 0.7071 -9.0487 32.6463)" width="6.9" height="1.4"/>
			<rect x="30.7" y="29.7" transform="matrix(0.7071 -0.7071 0.7071 0.7071 -10.7448 34.7838)" width="11.8" height="1.4"/>
			<rect x="36" y="30.7" transform="matrix(0.7071 -0.7071 0.7071 0.7071 -10.364 37.7814)" width="8.8" height="1.4"/>
			<path d="M59.4,48.7c-3.5-5.4-9.3-6.4-14.8-6.5l-2.1-2.7c-0.4-0.5-1-0.8-1.6-0.8c-1.2,0-2.1,0.9-2.1,2.1v1.6
				c-4.1,0.5-8.3,1.9-11.1,5.5c-2.4-3-5.8-3.7-10.4-3.7v1.4c2.6,0,3.5,2.5,3.5,3.5c0,0.9-0.8,3.5-3.5,3.5v1.4c4.6,0,8-0.6,10.4-3.7
				c2.9,3.8,7.4,5.1,11.8,5.6v1.5c0,1.2,1,2.2,2.2,2.2c0.6,0,1.1-0.2,1.5-0.6l2.9-2.9c5-0.3,10.2-1.5,13.4-6.5l0.2-0.4L59.4,48.7z
				 M20.8,52.3c0.9-1,1.3-2.4,1.3-3.3s-0.4-2.2-1.3-3.3c2.6,0.3,4.6,1.2,6,3.3C25.3,51.1,23.4,52,20.8,52.3z M40.1,40.8
				c0-0.4,0.3-0.7,0.7-0.7c0.2,0,0.4,0.1,0.6,0.3l1.5,1.8c-0.9,0-1.8,0-2.7,0.1V40.8z M42.1,57.8c-0.1,0.1-0.3,0.2-0.5,0.2
				c-0.4,0-0.8-0.3-0.8-0.8v-1.4c0.9,0.1,1.9,0.1,2.8,0.1c0.1,0,0.3,0,0.4,0L42.1,57.8z M50.5,53.9c-0.3-0.1-4.2-0.7-4.2-4.9
				c0-1.4,0.6-2.5,1.1-2.9L46.6,45c-1,0.7-1.7,2.3-1.7,4c0,2.7,1.4,4.4,3,5.3c-1.3,0.2-2.7,0.2-4.3,0.2c-7.7,0-12.4-1.7-15.1-5.5
				c2.7-3.8,7.4-5.5,15.1-5.5c7.5,0,11.7,1.6,14.4,5.5C56.2,51.5,53.9,53.1,50.5,53.9z"/>
			<path d="M51.2,45.6c-1.1,0-2.1,0.9-2.1,2.1c0,1.1,0.9,2.1,2.1,2.1c1.1,0,2.1-0.9,2.1-2.1C53.2,46.5,52.3,45.6,51.2,45.6z
				 M51.2,48.4c-0.4,0-0.7-0.3-0.7-0.7c0-0.4,0.3-0.7,0.7-0.7c0.4,0,0.7,0.3,0.7,0.7C51.9,48.1,51.5,48.4,51.2,48.4z"/>
			<rect x="42.2" y="48.4" width="1.4" height="1.4"/>
			<rect x="39.4" y="48.4" width="1.4" height="1.4"/>
			<rect x="36.6" y="48.4" width="1.4" height="1.4"/>
			<rect x="33.8" y="48.4" width="1.4" height="1.4"/>
			<rect x="31.1" y="48.4" width="1.4" height="1.4"/>
			<rect x="43.5" y="45.6" width="1.4" height="1.4"/>
			<rect x="40.8" y="45.6" width="1.4" height="1.4"/>
			<rect x="38" y="45.6" width="1.4" height="1.4"/>
			<rect x="35.2" y="45.6" width="1.4" height="1.4"/>
			<rect x="32.5" y="45.6" width="1.4" height="1.4"/>
			<rect x="43.5" y="51.1" width="1.4" height="1.4"/>
			<rect x="40.8" y="51.1" width="1.4" height="1.4"/>
			<rect x="38" y="51.1" width="1.4" height="1.4"/>
			<rect x="35.2" y="51.1" width="1.4" height="1.4"/>
			<rect x="32.5" y="51.1" width="1.4" height="1.4"/>
		</g>
	</g>
</g>
<path id="rempah" class="st1" d="M53,36.1c-1.5-1.4-3-2.8-3.1-3.6c2.4-7.3,4.4-10.3,5-10.6c1.1,0,2-1,2-2.1c0-1.2-0.9-2.1-2.1-2.1
	c-2.6,0-4.8,3.5-6.3,6.9v-6.2c0-1.2-0.9-2.1-2.1-2.1s-2.1,0.9-2.1,2.1v6.2c-1.5-3.4-3.7-6.9-6.3-6.9c-1.2,0-2.1,0.9-2.1,2.1
	c0,1.1,0.9,2.1,2,2.1c0.5,0.3,2.6,3.3,5,10.6c-0.1,0.8-1.6,2.2-3.1,3.6c-2.7,2.6-6.3,6-6.7,10.2L21,34.2l-0.5,0.5
	c-2.8,2.8-4.3,6.5-4.3,10.4s1.5,7.6,4.3,10.4c2.8,2.8,6.6,4.3,10.4,4.3c2.6,0,5.2-0.7,7.6-2.1c2.1,1.4,4.8,2.1,7.9,2.1
	c8,0,13.3-5.1,13.3-12.6C59.8,42.5,55.9,38.8,53,36.1L53,36.1z M49.5,56.9c1.1-2.5,1.8-6.2,1.8-9.7c0-1.8-1-4.3-2-7
	c-1-2.5-2-5.1-2.2-7.1h1.4c0.2,4.6,2,7.1,3.5,9.2c1.2,1.7,2.1,3,2.1,4.9C54.2,51.6,51.8,55,49.5,56.9z M41.7,55.3
	c-1.1-1.3-3-4.2-3-8.2c0-1.9,0.9-3.2,2.1-4.9c1.5-2.1,3.3-4.6,3.5-9.2h1.4c-0.2,2-1.2,4.6-2.2,7.1c-1,2.7-2,5.2-2,7
	c0,3.6,0.7,7.3,1.8,9.8C42.8,56.5,42.2,55.9,41.7,55.3z M54.9,19c0.4,0,0.7,0.3,0.7,0.7c0,0.4-0.3,0.7-0.7,0.7
	c-1.8,0.1-4.4,6-6.1,11.2h-0.2v-3.4C50.6,22.6,53,19,54.9,19z M46.4,17.6c0.4,0,0.7,0.3,0.7,0.7v13.3h-1.4V18.3
	C45.7,17.9,46,17.6,46.4,17.6z M38,20.4c-0.4,0-0.7-0.3-0.7-0.7c0-0.4,0.3-0.7,0.7-0.7c1.9,0,4.3,3.5,6.3,9.2v3.4h-0.2
	C42.4,26.5,39.9,20.6,38,20.4z M21.5,54.5c-2.5-2.5-3.9-5.8-3.9-9.4c0-3.3,1.2-6.4,3.4-8.9l1,1c-1.7,2-2.8,4.5-2.9,7.1l1.4,0.1
	c0.1-2.3,1-4.5,2.5-6.2l1,1c-1.4,1.6-2.2,3.7-2.2,5.9c0,4.7,3.7,8.7,8.4,9.1l0.1-1.4c-4-0.3-7.1-3.7-7.1-7.7c0-1.8,0.6-3.5,1.7-4.9
	l2,2C26.4,43,26.1,44,26.1,45c0,0.9,0.2,1.7,0.7,2.5l1.2-0.7c-0.3-0.5-0.5-1.1-0.5-1.8c0-0.7,0.2-1.3,0.5-1.9l4.8,4.8
	c-1.1,0.7-2.5,0.7-3.6,0.1l-0.7,1.2c0.7,0.4,1.6,0.7,2.5,0.7c0.8,0,1.6-0.2,2.3-0.6c0.1,1,0.4,1.9,0.7,2.8c-0.8,0.3-1.5,0.5-2.4,0.6
	l0.1,1.4c1-0.1,1.9-0.3,2.8-0.7c0.2,0.4,0.5,0.8,0.8,1.2c-1.4,0.6-2.8,0.9-4.3,0.9c-5.6,0-10.2-4.3-10.5-9.9l-1.4,0.1
	C19.4,52,24.7,57,31,57c1.8,0,3.6-0.4,5.3-1.2c0.3,0.4,0.7,0.7,1.1,1C32.2,59.5,25.7,58.7,21.5,54.5L21.5,54.5z M34.5,47.1
	c0-4,3.5-7.3,6.3-10c0.7-0.7,1.3-1.2,1.8-1.8c-0.5,2.8-1.8,4.5-3,6.1c-1.2,1.7-2.4,3.3-2.4,5.7c0,4.7,2.3,8.4,4.8,10.6
	C37.4,56.3,34.5,52.4,34.5,47.1L34.5,47.1z M42.9,47.1c0-1.5,0.9-3.9,1.9-6.5c0.6-1.5,1.2-3,1.6-4.4c0.4,1.4,1,2.9,1.6,4.4
	c1,2.5,1.9,4.9,1.9,6.5c0,6.4-2.1,11.2-3.5,11.2S42.9,53.5,42.9,47.1z M50.7,57.7c2.5-2.2,4.8-6,4.8-10.6c0-2.4-1.2-4-2.4-5.7
	c-1.2-1.6-2.4-3.4-3-6.1c0.5,0.6,1.1,1.1,1.8,1.8c2.8,2.7,6.3,6,6.3,10C58.4,52.4,55.4,56.3,50.7,57.7z"/>
<g id="buah" class="st1">
	<rect x="52.8" y="41.5" class="st2" width="1.4" height="1.4"/>
	<rect x="52.8" y="47.2" class="st2" width="1.4" height="1.4"/>
	<rect x="52.8" y="52.8" class="st2" width="1.4" height="1.4"/>
	<path class="st2" d="M58.4,35.9h-3.2c-0.4-1.6-1.1-3.2-2.3-4.4c-0.5-0.6-1.1-1-1.8-1.4c1.3-0.9,2.1-2.4,2.1-4.1v-0.7h-3.5
		c-1.8,0-3.4,1-4.2,2.4V26c0-1.6,1.3-2.8,2.8-2.8v-1.4c-2.3,0-4.2,1.9-4.2,4.2v3.9c-2.1-0.8-4.4-0.2-5.9,1.5
		c-0.2,0.2-0.4,0.4-0.5,0.6l0.1-0.3c0.1-0.5,0.1-1,0.1-1.5c0-2-0.8-3.8-2.1-5.1l2.5-3.6c0.1-0.1,0.1-0.2,0.1-0.2
		c0.5-1.1,0.1-2.4-1-2.9l-0.2-0.1c-0.5-0.3-1.1-0.3-1.7-0.1s-1,0.6-1.3,1.1c0,0.1-0.1,0.2-0.1,0.2l-1.4,4c-0.1,0-0.2-0.1-0.3-0.1
		l0.5-5c0-0.1,0-0.1,0-0.2c0-1.1-0.9-2-2-2h-0.1c-1.1,0-2,0.9-2,2c0,0.1,0,0.1,0,0.2l0.5,5c-0.1,0-0.2,0-0.3,0.1l-1.4-4
		c0-0.1-0.1-0.2-0.1-0.2c-0.3-0.5-0.7-0.9-1.3-1.1c-0.6-0.2-1.1-0.1-1.7,0.1l-0.2,0.1c-1.1,0.5-1.5,1.9-1,2.9c0,0.1,0.1,0.2,0.1,0.2
		l2.5,3.6c-1.3,1.3-2.1,3.1-2.1,5.1c0,0.5,0.1,1,0.1,1.4l0.9,4.2h-1c-0.8,0-1.4,0.6-1.4,1.4v0.1c-0.2,0-0.5-0.1-0.7-0.1h-3.5V38
		c0,1.7,0.8,3.2,2.1,4.1c-0.6,0.3-1.2,0.8-1.8,1.4c-1.6,1.8-2.5,4.1-2.5,6.6c0,2.7,1.1,5.2,3,7.1c1.9,1.8,4.3,2.8,6.8,2.8
		c0.1,0,0.3,0,0.4,0c2.5-0.1,4.8-1.2,6.5-2.8h20.6c1.9,0,3.5-1.6,3.5-3.5V40.1h1.4c0.8,0,1.4-0.6,1.4-1.4v-1.4
		C59.9,36.5,59.2,35.9,58.4,35.9z M49.9,26.7h2c-0.3,1.6-1.8,2.8-3.5,2.8h-2C46.7,27.9,48.2,26.7,49.9,26.7z M39.4,32.3
		c1.1-1.3,3-1.7,4.6-1c0.1,0,0.2,0.1,0.3,0.1v1.5c-0.7-0.3-1.4-0.8-1.6-1.1l-1,1c0.2,0.2,1.7,1.6,3.3,1.6s3.2-1.5,3.3-1.6l-1-1
		c-0.3,0.3-0.9,0.8-1.6,1.1v-2h2.8c0.2,0,0.5,0,0.7-0.1c1,0.1,2,0.6,2.8,1.5c0.9,1,1.5,2.2,1.9,3.5H37.5
		C37.8,34.6,38.4,33.4,39.4,32.3z M35.6,20C35.6,20,35.6,19.9,35.6,20c0.1-0.3,0.3-0.4,0.5-0.5c0.2-0.1,0.4-0.1,0.6,0l0.2,0.1
		c0.4,0.2,0.5,0.7,0.3,1c0,0,0,0.1-0.1,0.1l-2.4,3.5c-0.2-0.1-0.4-0.2-0.6-0.3L35.6,20z M30.2,18.2c0-0.4,0.3-0.6,0.6-0.6H31
		c0.4,0,0.6,0.3,0.6,0.7l-0.5,4.9c-0.1,0-0.1,0-0.2,0s-0.1,0-0.2,0L30.2,18.2z M24.7,20.8C24.7,20.7,24.7,20.7,24.7,20.8
		c-0.2-0.5-0.1-0.9,0.3-1.1l0.2-0.1c0.2-0.1,0.4-0.1,0.6,0c0.2,0.1,0.4,0.2,0.5,0.4c0,0,0,0.1,0,0.1l1.4,4c-0.2,0.1-0.4,0.2-0.6,0.3
		L24.7,20.8z M31,24.6c3.1,0,5.6,2.5,5.6,5.7c0,0.4,0,0.8-0.1,1.2l-0.9,4.4h-7.9c0.5-0.4,1.1-0.7,1.8-0.7v-1.4
		c-1.3,0-2.5,0.6-3.3,1.6l-0.8-3.9c-0.1-0.4-0.1-0.8-0.1-1.2C25.3,27.1,27.8,24.6,31,24.6z M23.9,37.3h1.5c0,0.2-0.1,0.5-0.1,0.7
		v0.8c-0.4-0.4-0.9-0.8-1.4-1V37.3z M21.8,38.7c1.7,0,3.1,1.2,3.5,2.8h-2c-1.7,0-3.1-1.2-3.5-2.8H21.8z M26.4,58.4
		c-2.3,0.1-4.5-0.7-6.2-2.4c-1.7-1.6-2.6-3.8-2.6-6.1c0-2.1,0.8-4.1,2.1-5.6c0.8-0.9,1.8-1.4,2.8-1.5c0.2,0,0.5,0.1,0.7,0.1h2.1v2
		c-0.7-0.3-1.4-0.8-1.6-1.1l-1,1c0.2,0.2,1.7,1.6,3.3,1.6c1.7,0,3.2-1.5,3.3-1.6l-1-1c-0.3,0.3-0.9,0.8-1.6,1.1v-1.3
		c0.3-0.1,0.7-0.1,1-0.3c1.6-0.7,3.5-0.3,4.6,1c1.5,1.7,2.3,3.8,2.2,6C34.3,54.7,30.7,58.3,26.4,58.4z M35.9,50
		c0-1.5-0.3-2.9-0.9-4.2h20.7V50H35.9z M53.5,55.6H34.1c0.9-1.2,1.5-2.7,1.7-4.2h19.8v2.1C55.6,54.7,54.7,55.6,53.5,55.6z
		 M58.4,38.7h-2.8v5.6H34.1c-0.2-0.3-0.5-0.7-0.7-1c-1.6-1.7-4.1-2.3-6.2-1.4c-0.1,0.1-0.3,0.1-0.4,0.1v-2h27.5v-1.4H26.7V38
		c0-0.2,0-0.5,0.1-0.7h31.6V38.7z"/>
	<path class="st2" d="M20.4,50H19c0,3.9,3.2,7,7,7v-1.4C22.9,55.6,20.4,53.1,20.4,50z"/>
	<rect x="33.1" y="27.4" class="st2" width="1.4" height="1.4"/>
	<rect x="33.1" y="30.2" class="st2" width="1.4" height="1.4"/>
	<rect x="33.1" y="33.1" class="st2" width="1.4" height="1.4"/>
</g>
<g id="seafood">
	<path d="M58.5,40.9l-2-2l-2.8-2.8c0,0,0,0,0,0l-2.9-2.8l-1.4-1.4c0.1-0.3,0.2-0.6,0.2-0.9c0-1.2-0.9-2.1-2.1-2.1
		c-0.3,0-0.6,0.1-0.9,0.2L45,27.6l-0.2-0.2l-0.1-0.1l-4.5-4.5c-0.2-0.2-0.5-0.3-0.8-0.2c-0.3,0.1-0.4,0.4-0.4,0.7
		c0,2.1,0.7,4,1.9,5.6c-1.8-0.9-3.3-2.3-4.5-3.9l-1.1,0.8c1.6,2.3,3.9,4,6.5,5v0.2c-2.2-0.2-4.3-1.1-5.8-2.7l-1,1
		c1.8,1.9,4.3,2.9,6.8,3.1v3.2c0,1.8,0.7,3.5,2,4.7c0.5,0.5,1.2,0.9,1.9,1.2l1.4,1.3l2.8,2.8c0.2,0.2,0.4,0.4,0.6,0.5l-0.7,0.7
		c-1.3,1.3-2,2.9-2.2,4.6c-1.7,0.1-3.4,0.5-5,1.3l-0.3,0.1c-0.3,0.1-0.4,0.4-0.4,0.7c0,0.3,0.2,0.5,0.5,0.6l3.9,1.3l1.3,3.9
		c0.1,0.3,0.3,0.5,0.6,0.5c0,0,0,0,0.1,0c0.3,0,0.5-0.1,0.6-0.4l0.1-0.3c0.8-1.5,1.2-3.3,1.3-5c1.7-0.2,3.4-0.9,4.7-2.1l3.3-3.1
		c1.1-1.1,1.8-2.5,1.8-4C60.1,43.5,59.5,42,58.5,40.9L58.5,40.9z M55.4,44.6c-1.3,1.3-3.4,1.3-4.6,0l-0.5-0.5c1.2,0,2.4-0.5,3.3-1.4
		c0.9-0.9,1.4-2.1,1.4-3.3l0.5,0.5C56.7,41.2,56.7,43.3,55.4,44.6L55.4,44.6z M52.6,41.7c-1.3,1.3-3.4,1.3-4.7,0l-0.1-0.1
		c1.2-0.2,2.2-0.7,3-1.6c0.9-1,1.3-2.2,1.2-3.4l0.5,0.4C53.9,38.4,53.9,40.5,52.6,41.7L52.6,41.7z M47.4,30.2c0.4,0,0.7,0.3,0.7,0.7
		s-0.3,0.7-0.7,0.7s-0.7-0.3-0.7-0.7S47,30.2,47.4,30.2z M42.5,27c-0.3,0.2-0.5,0.5-0.6,0.8c-0.6-0.8-1-1.7-1.3-2.7L42.5,27z
		 M43.2,35.5v-7.1c0-0.2,0.3-0.4,0.5-0.2l1.8,1.8c-0.1,0.3-0.2,0.6-0.2,0.9c0,1.2,0.9,2.1,2.1,2.1c0.3,0,0.6-0.1,0.9-0.2l1.4,1.4
		c1.3,1.3,1.4,3.4,0.1,4.8c-0.7,0.7-1.6,1.2-2.5,1.2c-1,0-1.9-0.3-2.6-1C43.7,38.3,43.2,36.9,43.2,35.5L43.2,35.5z M48.3,57.2
		l-0.8-2.5c-0.1-0.2-0.2-0.4-0.4-0.4l-2.5-0.8c1.1-0.4,2.2-0.6,3.4-0.6l1,1C48.9,54.9,48.7,56.1,48.3,57.2z M57.3,48L54,51.1
		c-1.1,1-2.6,1.7-4.1,1.7l-1-1c0.1-1.5,0.7-2.9,1.8-4l1.1-1.1c0.4,0.1,0.9,0.2,1.4,0.2c1.2,0,2.4-0.5,3.3-1.4
		c0.9-0.9,1.3-2.1,1.4-3.2c0.6,0.8,0.9,1.7,0.9,2.7C58.7,46.2,58.2,47.2,57.3,48L57.3,48z"/>
	<path d="M37.4,32.6l-2.8-2.8c0,0,0,0,0,0l-2.9-2.8l-1.4-1.4c0.1-0.3,0.2-0.6,0.2-0.9c0-1.2-0.9-2.1-2.1-2.1c-0.3,0-0.6,0.1-0.9,0.2
		L26,21.2L25.8,21l-0.1-0.1l-4.5-4.5c-0.2-0.2-0.5-0.3-0.8-0.2c-0.3,0.1-0.4,0.4-0.4,0.7c0,2.1,0.7,4,1.9,5.6
		c-1.8-0.9-3.3-2.3-4.5-3.9l-1.1,0.8c1.6,2.3,3.9,4,6.5,5v0.2c-2.2-0.2-4.3-1.1-5.8-2.7l-1,1c1.8,1.9,4.3,2.9,6.8,3.1v3.2
		c0,1.8,0.7,3.5,2,4.7c0.5,0.5,1.2,0.9,1.9,1.2l1.4,1.3l2.8,2.8c0.2,0.2,0.4,0.4,0.6,0.5l-0.7,0.7c-1.3,1.3-2,2.9-2.2,4.6
		c-1.7,0.1-3.4,0.5-5,1.3l-0.3,0.1c-0.3,0.1-0.4,0.4-0.4,0.7c0,0.3,0.2,0.5,0.5,0.6l3.9,1.3l1.3,3.9c0.1,0.3,0.3,0.5,0.6,0.5
		c0,0,0,0,0.1,0c0.3,0,0.5-0.1,0.6-0.4l0.1-0.3c0.8-1.5,1.2-3.3,1.3-5c1.7-0.2,3.4-0.9,4.7-2.1l3.3-3.1c1.1-1.1,1.8-2.5,1.8-4
		c0-1.5-0.6-3-1.7-4.1L37.4,32.6z M36.4,38.2c-1.3,1.3-3.4,1.3-4.6,0l-0.5-0.5c1.2,0,2.4-0.5,3.3-1.4c0.9-0.9,1.4-2.1,1.4-3.3
		l0.5,0.5C37.7,34.8,37.7,36.9,36.4,38.2z M33.6,35.4c-1.3,1.3-3.4,1.3-4.7,0l-0.1-0.1c1.2-0.2,2.2-0.7,3-1.6c0.9-1,1.3-2.2,1.2-3.4
		l0.5,0.4C34.9,32,34.9,34.1,33.6,35.4L33.6,35.4z M28.4,23.9c0.4,0,0.7,0.3,0.7,0.7s-0.3,0.7-0.7,0.7s-0.7-0.3-0.7-0.7
		S28,23.9,28.4,23.9z M23.5,20.7c-0.3,0.2-0.5,0.5-0.6,0.8c-0.6-0.8-1-1.7-1.3-2.7L23.5,20.7z M24.2,29.2v-7.1
		c0-0.2,0.3-0.4,0.5-0.2l1.8,1.8c-0.1,0.3-0.2,0.6-0.2,0.9c0,1.2,0.9,2.1,2.1,2.1c0.3,0,0.6-0.1,0.9-0.2l1.4,1.4
		c1.3,1.3,1.4,3.4,0.1,4.8c-0.7,0.7-1.6,1.2-2.5,1.2c-1,0-1.9-0.3-2.6-1C24.7,31.9,24.2,30.6,24.2,29.2L24.2,29.2z M29.2,50.8
		l-0.8-2.5c-0.1-0.2-0.2-0.4-0.4-0.4l-2.5-0.8c1.1-0.4,2.2-0.6,3.4-0.6l1,1C29.8,48.6,29.6,49.7,29.2,50.8z M38.3,41.7L35,44.7
		c-1.1,1-2.6,1.7-4.1,1.7l-1-1c0.1-1.5,0.7-2.9,1.8-4l1.1-1.1c0.4,0.1,0.9,0.2,1.4,0.2c1.2,0,2.4-0.5,3.3-1.4
		c0.9-0.9,1.3-2.1,1.4-3.2c0.6,0.8,0.9,1.7,0.9,2.7C39.6,39.8,39.2,40.9,38.3,41.7z"/>
</g>
</svg>
