<?xml version="1.0" encoding="utf-8"?>
<!-- Generator: Adobe Illustrator 21.0.0, SVG Export Plug-In . SVG Version: 6.00 Build 0)  -->
<svg version="1.1" id="Layer_1" xmlns="http://www.w3.org/2000/svg" xmlns:xlink="http://www.w3.org/1999/xlink" x="0px" y="0px"
	 viewBox="0 0 76 76" style="enable-background:new 0 0 76 76;" xml:space="preserve">
<style type="text/css">
	.st0{fill:#E4E4E4;}
</style>
<circle class="st0" cx="38" cy="38" r="38"/>
<g>
	<path d="M60.2,39.7c0-3-1.5-5.9-3.9-7.7c-0.5-0.4-1.1-0.6-1.7-0.6c-0.8,0-1.5,0.3-2.1,0.8c-0.1-0.1-0.2-0.2-0.3-0.3
		c-0.4-0.3-0.8-0.5-1.3-0.5l0.3-3.4c0-0.1,0-0.2,0-0.2c0-1.5-1.2-2.7-2.7-2.7h-0.2c-1.5,0-2.7,1.2-2.7,2.7c0,0.1,0,0.2,0,0.2
		l0.3,3.4c-0.4,0.1-0.9,0.3-1.2,0.5c-0.1,0.1-0.2,0.2-0.4,0.3c-0.1-0.1-0.1-0.1-0.2-0.2c0-0.2,0.1-0.5,0.1-0.7
		c0-0.9-0.3-1.7-0.8-2.4c0.5-0.7,0.8-1.5,0.8-2.4c0-2.4-2-4.3-4.4-4.2c-0.4-1.3-1.5-2.2-2.8-2.6c-0.8-1.1-2.1-1.6-3.5-1.6
		c-0.6-1.6-2.1-2.8-3.9-2.8c-1.5,0-2.9,0.8-3.6,2.1c-1.8,0.1-3.4,1.4-3.9,3.1c-2.2,0.8-3.6,2.9-3.6,5.2c0,1.9,0.9,3.6,2.4,4.6
		c-0.2,0.5-0.3,1.1-0.3,1.7c0,1.3,0.6,2.4,1.5,3.2C22,35.7,22,36,22,36.3c0,2.1,1.6,3.9,3.7,4.1l1.5,4.3c-0.8,0.6-1.5,1.3-2,2.1
		l-3.6-0.8c-0.1,0-0.3,0-0.4,0c-1.1,0-1.9,0.9-1.9,1.9v0.3c0,0.2,0,0.4,0.1,0.6h-0.1c-1.2,0-2.1,0.9-2.1,2.1s0.9,2.1,2.1,2.1h0.1
		c-0.1,0.2-0.1,0.4-0.1,0.6v0.3c0,1.1,0.9,1.9,1.9,1.9c0.1,0,0.3,0,0.4,0l3.6-0.8c1.3,2.2,3.8,3.6,6.5,3.6h0.2c0.4,0,0.8,0,1.2-0.1
		l23.8-3.7c1.9-0.3,3.3-1.9,3.3-3.9c0-1.6-0.9-2.9-2.3-3.5c1.4-1.7,2.3-3.9,2.3-6.2L60.2,39.7z M51.4,33.1c2.1,1.6,3.3,4.1,3.3,6.8
		v2.6c0,1.4-0.4,2.8-1,4.1l-5.6-0.9c-0.2-1-0.4-2-0.4-3.1v-2.8c0-0.7,0.1-1.4,0.2-2.1c0.2,0,0.3,0,0.5,0c2,0,3.5-0.9,3.5-2.1
		c0-0.7-0.5-1.2-1.2-1.6l0.1-1.1C51,32.9,51.2,33,51.4,33.1L51.4,33.1z M48.3,26.6h0.2c0.7,0,1.3,0.6,1.3,1.3c0,0,0,0.1,0,0.1
		l-0.6,6.9l0.5,0.2c0.6,0.2,0.8,0.5,0.8,0.5c0,0.2-0.7,0.7-2.1,0.7c-1.3,0-2.1-0.5-2.1-0.7c0-0.1,0.2-0.3,0.8-0.5l0.5-0.2L47,28
		c0,0,0-0.1,0-0.1C47,27.2,47.6,26.6,48.3,26.6L48.3,26.6z M46.1,32.9l0.1,1.1c-0.8,0.4-1.2,1-1.2,1.6c0,0.8,0.6,1.4,1.6,1.8
		c-0.1,0.8-0.2,1.6-0.2,2.4v2.8c0,1,0.1,1.9,0.3,2.8l-4.1-0.6c-0.2-0.8-0.3-1.6-0.3-2.4v-2.6c0-2.6,1.3-5.2,3.4-6.8
		C45.7,33,45.9,32.9,46.1,32.9z M38.6,44.2c-0.4-1-0.6-2-0.6-3v-1.5c0-2.6,1.3-5.1,3.4-6.6c0.3-0.2,0.6-0.3,0.9-0.3
		c0.4,0,0.8,0.2,1.1,0.5c-1.6,1.8-2.6,4.2-2.6,6.6v2.6c0,0.7,0.1,1.4,0.2,2.1L38.6,44.2z M38.6,23.3l0.1,0.7l0.7-0.2
		c0.2,0,0.4-0.1,0.6-0.1c1.5,0,2.8,1.2,2.8,2.8c0,0.7-0.3,1.4-0.8,1.9L41.6,29l0.5,0.5c0.5,0.5,0.8,1.2,0.8,1.9c0,0,0,0,0,0.1
		c-0.2,0-0.4-0.1-0.6-0.1c-0.6,0-1.2,0.2-1.7,0.6c-1.3,0.9-2.3,2.2-2.9,3.5c-0.3-0.8-0.5-1.6-0.8-2.4c0.6-3.4,3-5.4,3.1-5.4
		l-0.4-0.5l-0.4-0.5c-0.1,0.1-2,1.6-3,4.4c-1.4-3.3-2.8-5.5-2.9-5.6l-1.2,0.8c0,0,1.1,1.7,2.3,4.4c-2.1-0.8-4.4-0.6-4.6-0.6l0.1,1.4
		c1-0.1,4-0.1,5.4,1.4c0.5,1.2,1,2.5,1.4,3.9c-2.1-1.1-4.6-1.1-4.8-1.1V37c0,0,3.1,0,5,1.5c-0.1,0.4-0.1,0.8-0.1,1.3v1.5
		c0,0.9,0.1,1.9,0.4,2.7l-4-0.6c-0.2,0-0.4-0.1-0.6-0.1c-1.5,0-2.8-1.3-2.8-2.8c0-0.3,0.1-0.7,0.2-1L30,39l-0.5-0.3
		c-0.8-0.5-1.3-1.4-1.3-2.3c0-0.5,0.2-1.1,0.5-1.5l0.4-0.7l-0.7-0.4C27,33,26.2,31.6,26.2,30c0-1.9,1.2-3.5,3-4l0.4-0.1l0.1-0.4
		c0.2-1.4,1.4-2.4,2.7-2.4c0,0,0.1,0,0.1,0c0,0,0.1,0,0.1,0l0.5,0l0.2-0.5c0.4-1,1.4-1.7,2.6-1.7C37.2,21,38.4,22,38.6,23.3
		L38.6,23.3z M26.6,39.1h-0.5c-1.5,0-2.8-1.2-2.8-2.8c0-0.3,0.1-0.7,0.2-1l0.2-0.5l-0.5-0.3C22.5,34,22,33.1,22,32.1
		c0-0.5,0.2-1.1,0.5-1.5l0.4-0.7l-0.7-0.4c-1.4-0.7-2.3-2.1-2.3-3.7c0-1.9,1.2-3.5,3-4l0.4-0.1l0.1-0.4c0.2-1.4,1.4-2.4,2.7-2.4
		c0,0,0.1,0,0.1,0c0,0,0.1,0,0.1,0l0.5,0l0.2-0.5c0.4-1,1.4-1.7,2.6-1.7c1.3,0,2.5,1,2.7,2.3l0.1,0.7l0.7-0.2c0.2,0,0.4-0.1,0.6-0.1
		c0.3,0,0.6,0.1,0.9,0.2c-1,0.3-1.9,1-2.4,1.9c-1.8,0.1-3.4,1.4-3.9,3.1c-2.2,0.8-3.6,2.9-3.6,5.2c0,1.9,0.9,3.6,2.4,4.6
		c-0.2,0.5-0.3,1.1-0.3,1.7c0,1.3,0.6,2.4,1.5,3.2c-0.1,0.3-0.1,0.6-0.1,1c0,1.2,0.5,2.3,1.4,3.1c-0.4,0.1-0.8,0.3-1.2,0.5
		L26.6,39.1z M20.6,48.3V48c0-0.3,0.3-0.6,0.7-0.5l3.3,0.7c-0.1,0.2-0.2,0.4-0.2,0.6h-3.2C20.8,48.8,20.6,48.6,20.6,48.3z
		 M18.5,50.9c0-0.4,0.3-0.7,0.7-0.7h1.9h3c0,0.2,0,0.5,0,0.7s0,0.5,0,0.7h-3h-1.9C18.8,51.6,18.5,51.3,18.5,50.9z M21.3,54.4
		c-0.3,0.1-0.7-0.2-0.7-0.5v-0.3c0-0.3,0.3-0.6,0.6-0.6h3.2c0.1,0.2,0.1,0.4,0.2,0.6L21.3,54.4z M58.8,50.9c0,1.3-0.9,2.3-2.2,2.5
		l-23.8,3.7c-0.3,0-0.6,0.1-1,0.1h-0.2c-3.5,0-6.3-2.8-6.3-6.3s2.8-6.3,6.3-6.3h0.2c0.3,0,0.6,0,1,0.1l23.8,3.7
		C57.9,48.6,58.8,49.6,58.8,50.9z M58.8,41.2c0,2.1-0.9,4.2-2.4,5.7l-1.4-0.2c0.6-1.3,1-2.8,1-4.3v-2.6c0-2.5-0.9-4.8-2.6-6.6
		c0.3-0.3,0.7-0.4,1.1-0.4c0.3,0,0.7,0.1,0.9,0.3c2.1,1.6,3.4,4,3.4,6.6L58.8,41.2z"/>
	<path d="M31,47.4h1.4v7H31V47.4z"/>
	<path d="M36.6,47.4H38v7h-1.4V47.4z"/>
	<path d="M42.2,47.4h1.4v7h-1.4V47.4z"/>
	<path d="M47.7,48.8h1.4V53h-1.4V48.8z"/>
	<path d="M53.3,49.5h1.4v2.8h-1.4V49.5z"/>
</g>
</svg>
